
        <svg xmlns="http://www.w3.org/2000/svg" xmlns:xlink="http://www.w3.org/1999/xlink" version="1.1" width="3171.4285714285716" 
        height="2044.1295288534689" viewBox="0 0 3171.4285714285716 2044.1295288534689">
			
			<g transform="scale(8.57142857142857) translate(10, 10)">
				<defs id="SvgjsDefs4742"><linearGradient id="SvgjsLinearGradient4749"><stop id="SvgjsStop4750" stop-color="#ef4136" offset="0"></stop><stop id="SvgjsStop4751" stop-color="#fbb040" offset="1"></stop></linearGradient><linearGradient id="SvgjsLinearGradient4752"><stop id="SvgjsStop4753" stop-color="#ef4136" offset="0"></stop><stop id="SvgjsStop4754" stop-color="#fbb040" offset="1"></stop></linearGradient><linearGradient id="SvgjsLinearGradient4755"><stop id="SvgjsStop4756" stop-color="#ef4136" offset="0"></stop><stop id="SvgjsStop4757" stop-color="#fbb040" offset="1"></stop></linearGradient></defs><g id="SvgjsG4743" featureKey="symbolFeature-0" transform="matrix(1.5555555555555556,0,0,1.5555555555555556,97.22222222222223,-11.018000284830729)" fill="url(#SvgjsLinearGradient4749)"><g xmlns="http://www.w3.org/2000/svg"><g><polygon points="65.516,24.979 66.572,23.939 49.992,7.083 5,52.954 6.059,53.992 49.994,9.198   "></polygon><polygon points="16.929,53.475 15.447,53.475 15.447,92.917 41.51,92.917 41.51,91.436 16.929,91.436   "></polygon><polygon points="83.085,91.436 59.232,91.436 59.232,60.797 41.51,60.797 41.51,62.279 57.75,62.279 57.75,92.917 84.566,92.917     84.566,53.475 83.085,53.475   "></polygon><polygon points="79.203,36.851 79.203,15.397 66.044,15.397 66.044,16.879 77.721,16.879 77.721,37.457 93.941,53.992 95,52.954       "></polygon></g></g></g><g id="SvgjsG4744" featureKey="nameFeature-0" transform="matrix(1.3203612020481441,0,0,1.3203612020481441,-4.964556847914509,136.51841798708926)" fill="url(#SvgjsLinearGradient4752)"><path d="M8.64 13.600000000000001 c0.2 0 0.36 0.16 0.36 0.36 l0 21 l8.64 0 c0.2 0 0.36 0.16 0.36 0.36 l0 4.32 c0 0.2 -0.16 0.36 -0.36 0.36 l-13.56 0 c-0.2 0 -0.32 -0.16 -0.32 -0.36 l0 -25.68 c0 -0.2 0.12 -0.36 0.32 -0.36 l4.56 0 z M6.16 16.04 l0 21.52 c0 0.08 0.08 0.2 0.24 0.2 l9.24 0 c0.32 0 0.32 -0.52 0 -0.52 l-9.04 0 l0 -21.2 c0 -0.28 -0.44 -0.32 -0.44 0 z M35.269 13.96 c0 -0.2 0.16 -0.36 0.36 -0.36 l4.6 0 c0.2 0 0.36 0.16 0.36 0.36 l0 25.68 c0 0.2 -0.16 0.36 -0.36 0.36 l-4.44 0 c-0.16 0 -0.32 -0.08 -0.36 -0.2 l-5.84 -13.16 l0 13 c0 0.2 -0.16 0.36 -0.36 0.36 l-4.56 0 c-0.2 0 -0.32 -0.16 -0.32 -0.36 l0 -25.68 c0 -0.2 0.12 -0.36 0.32 -0.36 l4.72 0 c0.16 0 0.24 0.12 0.28 0.2 l5.6 12.92 l0 -12.76 z M38.149 37.6 l0 -21.6 c0 -0.28 -0.52 -0.36 -0.52 0 l0 20.56 l-10.44 -20.64 c-0.12 -0.16 -0.44 -0.16 -0.44 0.08 l0 21.56 c0 0.36 0.48 0.36 0.48 0 l0 -20.52 l10.4 20.6 c0.16 0.28 0.52 0.2 0.52 -0.04 z M63.858000000000004 29.560000000000002 c-0.56 1.16 -1.36 2.04 -2.48 2.56 l3.36 7.4 c0.12 0.24 -0.04 0.48 -0.28 0.48 l-4.92 0 c-0.16 0 -0.24 -0.08 -0.28 -0.2 l-3.12 -6.8 l-2.04 0 l0 6.64 c0 0.2 -0.16 0.36 -0.36 0.36 l-4.6 0 c-0.16 0 -0.28 -0.16 -0.28 -0.36 l0 -25.68 c0 -0.2 0.12 -0.36 0.28 -0.36 l8.32 0 c4.44 0 7.12 2.52 7.12 7.2 l0 5.04 c0 1.4 -0.24 2.72 -0.72 3.72 z M59.338 24.6 l0 -2.6 c0 -2.8 -1.04 -3.08 -4.08 -3.08 l-1.16 0 l0 8.84 l1.16 0 c2.52 0 4 -0.04 4.08 -3.16 z M51.778 37.56 l0 -6.84 l5.76 0 l3.36 6.92 c0.08 0.2 0.56 0.12 0.44 -0.24 l-3.36 -6.8 c3.12 -0.44 4.2 -2.08 4.2 -5.04 l0 -5 c0 -4.4 -4 -4.76 -5.24 -4.76 l-5.4 0 c-0.08 0 -0.24 0.12 -0.24 0.24 l0 21.52 c0 0.28 0.48 0.28 0.48 0 z M61.698 20.56 l0 5 c0 4.08 -2.6 4.64 -5.12 4.64 l-4.8 0 l0 -13.88 l5.16 0 c4.32 0 4.76 2.92 4.76 4.24 z M72.72699999999999 40 c-0.2 0 -0.32 -0.16 -0.32 -0.36 l0 -25.68 c0 -0.2 0.12 -0.36 0.32 -0.36 l13.6 0 c0.2 0 0.36 0.16 0.36 0.36 l0 4.28 c0 0.2 -0.16 0.36 -0.36 0.36 l-8.64 0 l0 5.44 l6.72 0 c0.2 0 0.32 0.16 0.32 0.36 l0 4.36 c0 0.2 -0.12 0.36 -0.32 0.36 l-6.72 0 l0 5.88 l8.64 0 c0.2 0 0.36 0.16 0.36 0.36 l0 4.28 c0 0.2 -0.16 0.36 -0.36 0.36 l-13.6 0 z M74.72699999999999 16.12 l0 21.28 c0 0.24 0.16 0.32 0.32 0.32 l9.2 0 c0.36 0 0.28 -0.48 0 -0.48 l-9 0 l0 -10.44 l7.36 0 c0.24 0 0.24 -0.56 0 -0.56 l-7.36 0 l0 -9.92 l9 0 c0.28 0 0.36 -0.52 0 -0.52 l-9.2 0 c-0.16 0 -0.32 0.12 -0.32 0.32 z M105.11599999999999 13.96 c0 -0.2 0.16 -0.36 0.36 -0.36 l4.6 0 c0.2 0 0.36 0.16 0.36 0.36 l0 25.68 c0 0.2 -0.16 0.36 -0.36 0.36 l-4.44 0 c-0.16 0 -0.32 -0.08 -0.36 -0.2 l-5.84 -13.16 l0 13 c0 0.2 -0.16 0.36 -0.36 0.36 l-4.56 0 c-0.2 0 -0.32 -0.16 -0.32 -0.36 l0 -25.68 c0 -0.2 0.12 -0.36 0.32 -0.36 l4.72 0 c0.16 0 0.24 0.12 0.28 0.2 l5.6 12.92 l0 -12.76 z M107.996 37.6 l0 -21.6 c0 -0.28 -0.52 -0.36 -0.52 0 l0 20.56 l-10.44 -20.64 c-0.12 -0.16 -0.44 -0.16 -0.44 0.08 l0 21.56 c0 0.36 0.48 0.36 0.48 0 l0 -20.52 l10.4 20.6 c0.16 0.28 0.52 0.2 0.52 -0.04 z M127.38499999999999 13.239999999999998 c3.44 0 5.84 0.76 7.36 2.4 c1.2 1.32 1.76 3.2 1.76 5.88 l0 10.52 c0 2.76 -0.56 4.68 -1.76 5.96 c-1.56 1.6 -3.92 2.4 -7.36 2.4 c-3.56 0 -5.88 -0.8 -7.4 -2.4 c-1.16 -1.28 -1.8 -3.2 -1.8 -5.96 l0 -10.52 c0 -2.68 0.64 -4.56 1.8 -5.92 c1.56 -1.6 3.92 -2.36 7.4 -2.36 z M131.185 30.84 l0 -8 c0 -3.52 -1.88 -4.24 -3.6 -4.24 l-0.48 0 c-2.56 0 -3.56 1.64 -3.56 4.24 l0 8 c0 3.52 1.88 4.28 3.56 4.28 l0.48 0 c2.56 0 3.56 -1.72 3.6 -4.28 z M120.705 21.8 l0 9.92 c0 1.88 0.48 3.44 1.6 4.6 c1.04 1.04 2.64 1.6 4.6 1.6 l1.04 0 c3.76 0 6.2 -2.4 6.2 -6.2 l0 -9.92 c0 -4.08 -2.16 -6.28 -6.2 -6.28 l-1.04 0 c-4.08 0 -6.2 2.2 -6.2 6.28 z M127.945 37.4 l-1.04 0 c-1.88 0 -3.28 -0.48 -4.28 -1.48 s-1.52 -2.4 -1.52 -4.2 l0 -9.92 c0 -3.8 2.04 -5.8 5.8 -5.8 l1.04 0 c3.8 0 5.68 1.96 5.68 5.8 l0 9.92 c0 1.68 -0.52 3.2 -1.6 4.24 c-1.04 0.88 -2.44 1.44 -4.08 1.44 z M147.654 13.84 l4.4 16.56 l4.52 -16.56 c0.08 -0.12 0.16 -0.24 0.32 -0.24 l4.56 0 c0.24 0 0.4 0.2 0.32 0.44 l-6.92 25.72 c-0.08 0.16 -0.16 0.24 -0.32 0.24 l-4.96 0 c-0.12 0 -0.24 -0.08 -0.28 -0.24 l-6.92 -25.72 c-0.04 -0.24 0.12 -0.44 0.36 -0.44 l4.6 0 c0.16 0 0.24 0.12 0.32 0.24 z M151.974 37.24 l-6.68 -21.32 c-0.12 -0.32 -0.56 -0.12 -0.44 0.12 l6.64 21.36 c0.16 0.6 0.8 0.64 1 0 l6.4 -21.36 c0.08 -0.24 -0.36 -0.4 -0.44 -0.12 z M173.083 13.84 c0.04 -0.12 0.12 -0.24 0.28 -0.24 l4.96 0 c0.16 0 0.24 0.12 0.28 0.24 l6.92 25.72 c0.04 0.24 -0.12 0.44 -0.36 0.44 l-4.56 0 c-0.12 0 -0.24 -0.08 -0.28 -0.24 l-1.56 -5.6 l-5.84 0 l-1.52 5.6 c-0.04 0.16 -0.12 0.24 -0.28 0.24 l-4.6 0 c-0.24 0 -0.4 -0.2 -0.36 -0.44 z M174.203 29.2 l3.32 0 l-1.72 -6.04 z M180.363 31.560000000000002 l1.84 6 c0.08 0.24 0.52 0.2 0.4 -0.12 l-6.4 -21.28 c-0.12 -0.52 -0.8 -0.56 -0.92 0 l-6.2 21.28 c-0.12 0.28 0.32 0.4 0.44 0.16 l1.76 -6.04 l9.08 0 z M171.40300000000002 31.04 l4.36 -14.72 l4.44 14.72 l-8.8 0 z M195.992 18.6 l-5.68 0 c-0.2 0 -0.36 -0.16 -0.36 -0.36 l0 -4.28 c0 -0.2 0.16 -0.36 0.36 -0.36 l16.68 0 c0.2 0 0.36 0.16 0.36 0.36 l0 4.28 c0 0.2 -0.16 0.36 -0.36 0.36 l-5.68 0 l0 21.04 c0 0.2 -0.16 0.36 -0.36 0.36 l-4.6 0 c-0.2 0 -0.36 -0.16 -0.36 -0.36 l0 -21.04 z M204.552 15.8 l-12.08 0 c-0.28 0 -0.28 0.52 0 0.52 l5.92 0 l0 21.2 c0 0.28 0.52 0.28 0.52 0 l0 -21.2 l5.64 0 c0.4 0 0.36 -0.52 0 -0.52 z M214.02100000000002 40 c-0.2 0 -0.32 -0.16 -0.32 -0.36 l0 -25.68 c0 -0.2 0.12 -0.36 0.32 -0.36 l4.56 0 c0.2 0 0.36 0.16 0.36 0.36 l0 25.68 c0 0.2 -0.16 0.36 -0.36 0.36 l-4.56 0 z M216.101 16 l0 21.56 c0 0.36 0.44 0.36 0.44 0 l0 -21.56 c0 -0.28 -0.44 -0.28 -0.44 0 z M235.73 13.239999999999998 c3.44 0 5.84 0.76 7.36 2.4 c1.2 1.32 1.76 3.2 1.76 5.88 l0 10.52 c0 2.76 -0.56 4.68 -1.76 5.96 c-1.56 1.6 -3.92 2.4 -7.36 2.4 c-3.56 0 -5.88 -0.8 -7.4 -2.4 c-1.16 -1.28 -1.8 -3.2 -1.8 -5.96 l0 -10.52 c0 -2.68 0.64 -4.56 1.8 -5.92 c1.56 -1.6 3.92 -2.36 7.4 -2.36 z M239.53 30.84 l0 -8 c0 -3.52 -1.88 -4.24 -3.6 -4.24 l-0.48 0 c-2.56 0 -3.56 1.64 -3.56 4.24 l0 8 c0 3.52 1.88 4.28 3.56 4.28 l0.48 0 c2.56 0 3.56 -1.72 3.6 -4.28 z M229.04999999999998 21.8 l0 9.92 c0 1.88 0.48 3.44 1.6 4.6 c1.04 1.04 2.64 1.6 4.6 1.6 l1.04 0 c3.76 0 6.2 -2.4 6.2 -6.2 l0 -9.92 c0 -4.08 -2.16 -6.28 -6.2 -6.28 l-1.04 0 c-4.08 0 -6.2 2.2 -6.2 6.28 z M236.29 37.4 l-1.04 0 c-1.88 0 -3.28 -0.48 -4.28 -1.48 s-1.52 -2.4 -1.52 -4.2 l0 -9.92 c0 -3.8 2.04 -5.8 5.8 -5.8 l1.04 0 c3.8 0 5.68 1.96 5.68 5.8 l0 9.92 c0 1.68 -0.52 3.2 -1.6 4.24 c-1.04 0.88 -2.44 1.44 -4.08 1.44 z M263.519 13.96 c0 -0.2 0.16 -0.36 0.36 -0.36 l4.6 0 c0.2 0 0.36 0.16 0.36 0.36 l0 25.68 c0 0.2 -0.16 0.36 -0.36 0.36 l-4.44 0 c-0.16 0 -0.32 -0.08 -0.36 -0.2 l-5.84 -13.16 l0 13 c0 0.2 -0.16 0.36 -0.36 0.36 l-4.56 0 c-0.2 0 -0.32 -0.16 -0.32 -0.36 l0 -25.68 c0 -0.2 0.12 -0.36 0.32 -0.36 l4.72 0 c0.16 0 0.24 0.12 0.28 0.2 l5.6 12.92 l0 -12.76 z M266.399 37.6 l0 -21.6 c0 -0.28 -0.52 -0.36 -0.52 0 l0 20.56 l-10.44 -20.64 c-0.12 -0.16 -0.44 -0.16 -0.44 0.08 l0 21.56 c0 0.36 0.48 0.36 0.48 0 l0 -20.52 l10.4 20.6 c0.16 0.28 0.52 0.2 0.52 -0.04 z"></path></g><g id="SvgjsG4745" featureKey="sloganFeature-0" transform="matrix(1.143671714921716,0,0,1.143671714921716,34.931379762546115,194.44179948574262)" fill="url(#SvgjsLinearGradient4755)"><path d="M5.06 20 l-0.86 0 l-4.14 -15 l1.06 0 l3.5 13.26 l3.58 -13.26 l1.02 0 z M15.938500000000001 20.18 c-2.52 0 -3.78 -1.32 -3.78 -3.96 l0 -7.4 c0 -1.3333 0.31666 -2.3266 0.95 -2.98 s1.6567 -0.98 3.07 -0.98 c1.2933 0 2.25 0.33 2.87 0.99 s0.93 1.6367 0.93 2.93 l0 7.44 c0 0.66666 -0.07 1.2467 -0.21 1.74 s-0.37 0.90668 -0.69 1.24 s-0.73666 0.58 -1.25 0.74 s-1.1433 0.24 -1.89 0.24 z M18.9185 8.76 c0 -0.33334 -0.04664 -0.67338 -0.13998 -1.02 s-0.24668 -0.66332 -0.46002 -0.94998 s-0.49668 -0.52 -0.85002 -0.7 s-0.79 -0.27 -1.31 -0.27 c-0.57334 0 -1.05 0.08 -1.43 0.24 s-0.68 0.38334 -0.9 0.67 s-0.37666 0.62332 -0.47 1.01 s-0.14 0.80666 -0.14 1.26 l0 7.1 c0 0.34666 0.04 0.7 0.12 1.06 s0.22334 0.69 0.43 0.99 s0.48666 0.54666 0.84 0.74 s0.79668 0.29 1.33 0.29 c0.57334 0 1.05 -0.07666 1.43 -0.23 s0.68334 -0.36334 0.91 -0.63 s0.39 -0.58332 0.49 -0.94998 s0.15 -0.76332 0.15 -1.19 l0 -7.42 z M27.256999999999998 6.1 l0 13.9 l-1.16 0 l0 -13.9 l-3.26 0 l0 -1.1 l7.68 0 l0 1.1 l-3.26 0 z M41.295500000000004 20 l-3.3 -6.22 l-3.06 0 l0 6.22 l-0.98 0 l0 -15 l3.4 0 c0.78666 0 1.46 0.11666 2.02 0.35 s1.02 0.55 1.38 0.95 s0.62666 0.86334 0.8 1.39 s0.26 1.0767 0.26 1.65 c0 0.97334 -0.25 1.85 -0.75 2.63 s-1.1567 1.35 -1.97 1.71 l3.52 6.32 l-1.32 0 z M37.2155 5.92 l-2.28 -0.000019531 l0 6.84 l2.42 0 c0.68 0 1.24 -0.10334 1.68 -0.31 s0.78334 -0.47332 1.03 -0.79998 s0.42 -0.7 0.52 -1.12 s0.15 -0.85 0.15 -1.29 c0 -0.46666 -0.08 -0.9 -0.24 -1.3 s-0.39 -0.75 -0.69 -1.05 s-0.66666 -0.53666 -1.1 -0.71 s-0.93 -0.26 -1.49 -0.26 z M45.974000000000004 20 l0 -15 l7.36 0 l0 1.16 l-6.32 0 l0 5.7 l6.26 0 l0 0.92 l-6.26 0 l0 6.06 l6.46 0 l0 1.16 l-7.5 0 z M71.671 20 l0 -12.72 l-3.62 8.66 l-1.12 -0.02 l-3.54 -8.66 l0 12.74 l-0.98 0 l0 -15 l1.04 0 l4.06 9.76 l4.08 -9.76 l1.06 0 l0 15 l-0.98 0 z M84.0095 20 l-1.1 -4.42 l-4.88 0 l-1.1 4.42 l-1 0 l4.14 -15 l0.86 0 l4.12 15 l-1.04 0 z M80.5295 5.9399999999999995 l-2.26 8.68 l4.38 0 z M88.148 20 l0 -15 l1.28 0 l0 15 l-1.28 0 z M97.1865 20.18 c-0.65334 0 -1.2335 -0.086738 -1.7401 -0.26008 s-0.93332 -0.45 -1.28 -0.83 s-0.60332 -0.87666 -0.76998 -1.49 s-0.23666 -1.3533 -0.21 -2.22 l1.2 0 c0 0.42666 0.02 0.87 0.06 1.33 s0.14666 0.88 0.32 1.26 s0.43668 0.69 0.79002 0.93 s0.84334 0.36 1.47 0.36 c0.53334 0 0.98668 -0.08 1.36 -0.24 s0.67668 -0.37334 0.91002 -0.64 s0.39668 -0.58 0.49002 -0.94 s0.14 -0.73334 0.14 -1.12 c0 -0.45334 -0.08334 -0.85 -0.25 -1.19 s-0.38666 -0.64334 -0.66 -0.91 s-0.59334 -0.50332 -0.96 -0.70998 s-0.75 -0.39 -1.15 -0.55 c-0.64 -0.25334 -1.2 -0.50334 -1.68 -0.75 s-0.87334 -0.52332 -1.18 -0.82998 s-0.53666 -0.66332 -0.69 -1.07 s-0.23 -0.90332 -0.23 -1.49 c0 -1.3333 0.35 -2.3266 1.05 -2.98 s1.7033 -0.98 3.01 -0.98 c1.1333 0 2.03 0.33 2.69 0.99 s0.99 1.65 0.99 2.97 l0 1.1 l-1.12 0 l0 -1.2 c0 -0.41334 -0.05 -0.79668 -0.15 -1.15 s-0.25666 -0.66334 -0.47 -0.93 s-0.48334 -0.47666 -0.81 -0.63 s-0.71666 -0.23 -1.17 -0.23 c-1.0667 0 -1.83 0.28 -2.29 0.84 s-0.67 1.3133 -0.63 2.26 c0.01334 0.41334 0.09 0.76668 0.23 1.06 s0.32666 0.55 0.56 0.77 s0.51334 0.41666 0.84 0.59 s0.69 0.34668 1.09 0.52002 c0.46666 0.2 0.93 0.41334 1.39 0.64 s0.89 0.50666 1.29 0.84 c0.4 0.34666 0.73 0.75 0.99 1.21 s0.39 1.03 0.39 1.71 c0 1.32 -0.33666 2.31 -1.01 2.97 s-1.61 0.99 -2.81 0.99 z M108.165 20.18 c-2.52 0 -3.78 -1.32 -3.78 -3.96 l0 -7.4 c0 -1.3333 0.31666 -2.3266 0.95 -2.98 s1.6567 -0.98 3.07 -0.98 c1.2933 0 2.25 0.33 2.87 0.99 s0.93 1.6367 0.93 2.93 l0 7.44 c0 0.66666 -0.07 1.2467 -0.21 1.74 s-0.37 0.90668 -0.69 1.24 s-0.73666 0.58 -1.25 0.74 s-1.1433 0.24 -1.89 0.24 z M111.14500000000001 8.76 c0 -0.33334 -0.04664 -0.67338 -0.13998 -1.02 s-0.24668 -0.66332 -0.46002 -0.94998 s-0.49668 -0.52 -0.85002 -0.7 s-0.79 -0.27 -1.31 -0.27 c-0.57334 0 -1.05 0.08 -1.43 0.24 s-0.68 0.38334 -0.9 0.67 s-0.37666 0.62332 -0.47 1.01 s-0.14 0.80666 -0.14 1.26 l0 7.1 c0 0.34666 0.04 0.7 0.12 1.06 s0.22334 0.69 0.43 0.99 s0.48666 0.54666 0.84 0.74 s0.79668 0.29 1.33 0.29 c0.57334 0 1.05 -0.07666 1.43 -0.23 s0.68334 -0.36334 0.91 -0.63 s0.39 -0.58332 0.49 -0.94998 s0.15 -0.76332 0.15 -1.19 l0 -7.42 z M122.80350000000001 20 l-5.8 -12.88 l0 12.88 l-1.1 0 l0 -15 l1.18 0 l5.8 12.3 l0.14 -12.3 l1.08 0 l0 15 l-1.3 0 z M128.102 21.02 l0 -1.88 l0 -0.68 l1.58 0 l0 1.46 z M138.1805 20 l-0.86 0 l-4.14 -15 l1.06 0 l3.5 13.26 l3.58 -13.26 l1.02 0 z M149.059 20.18 c-2.52 0 -3.78 -1.32 -3.78 -3.96 l0 -7.4 c0 -1.3333 0.31666 -2.3266 0.95 -2.98 s1.6567 -0.98 3.07 -0.98 c1.2933 0 2.25 0.33 2.87 0.99 s0.93 1.6367 0.93 2.93 l0 7.44 c0 0.66666 -0.07 1.2467 -0.21 1.74 s-0.37 0.90668 -0.69 1.24 s-0.73666 0.58 -1.25 0.74 s-1.1433 0.24 -1.89 0.24 z M152.039 8.76 c0 -0.33334 -0.04664 -0.67338 -0.13998 -1.02 s-0.24668 -0.66332 -0.46002 -0.94998 s-0.49668 -0.52 -0.85002 -0.7 s-0.79 -0.27 -1.31 -0.27 c-0.57334 0 -1.05 0.08 -1.43 0.24 s-0.68 0.38334 -0.9 0.67 s-0.37666 0.62332 -0.47 1.01 s-0.14 0.80666 -0.14 1.26 l0 7.1 c0 0.34666 0.04 0.7 0.12 1.06 s0.22334 0.69 0.43 0.99 s0.48666 0.54666 0.84 0.74 s0.79668 0.29 1.33 0.29 c0.57334 0 1.05 -0.07666 1.43 -0.23 s0.68334 -0.36334 0.91 -0.63 s0.39 -0.58332 0.49 -0.94998 s0.15 -0.76332 0.15 -1.19 l0 -7.42 z M160.3775 6.1 l0 13.9 l-1.16 0 l0 -13.9 l-3.26 0 l0 -1.1 l7.68 0 l0 1.1 l-3.26 0 z M174.41600000000003 20 l-3.3 -6.22 l-3.06 0 l0 6.22 l-0.98 0 l0 -15 l3.4 0 c0.78666 0 1.46 0.11666 2.02 0.35 s1.02 0.55 1.38 0.95 s0.62666 0.86334 0.8 1.39 s0.26 1.0767 0.26 1.65 c0 0.97334 -0.25 1.85 -0.75 2.63 s-1.1567 1.35 -1.97 1.71 l3.52 6.32 l-1.32 0 z M170.336 5.92 l-2.28 -0.000019531 l0 6.84 l2.42 0 c0.68 0 1.24 -0.10334 1.68 -0.31 s0.78334 -0.47332 1.03 -0.79998 s0.42 -0.7 0.52 -1.12 s0.15 -0.85 0.15 -1.29 c0 -0.46666 -0.08 -0.9 -0.24 -1.3 s-0.39 -0.75 -0.69 -1.05 s-0.66666 -0.53666 -1.1 -0.71 s-0.93 -0.26 -1.49 -0.26 z M179.0945 20 l0 -15 l7.36 0 l0 1.16 l-6.32 0 l0 5.7 l6.26 0 l0 0.92 l-6.26 0 l0 6.06 l6.46 0 l0 1.16 l-7.5 0 z M199.63150000000002 20.18 c-0.65334 0 -1.2335 -0.086738 -1.7401 -0.26008 s-0.93332 -0.45 -1.28 -0.83 s-0.60332 -0.87666 -0.76998 -1.49 s-0.23666 -1.3533 -0.21 -2.22 l1.2 0 c0 0.42666 0.02 0.87 0.06 1.33 s0.14666 0.88 0.32 1.26 s0.43668 0.69 0.79002 0.93 s0.84334 0.36 1.47 0.36 c0.53334 0 0.98668 -0.08 1.36 -0.24 s0.67668 -0.37334 0.91002 -0.64 s0.39668 -0.58 0.49002 -0.94 s0.14 -0.73334 0.14 -1.12 c0 -0.45334 -0.08334 -0.85 -0.25 -1.19 s-0.38666 -0.64334 -0.66 -0.91 s-0.59334 -0.50332 -0.96 -0.70998 s-0.75 -0.39 -1.15 -0.55 c-0.64 -0.25334 -1.2 -0.50334 -1.68 -0.75 s-0.87334 -0.52332 -1.18 -0.82998 s-0.53666 -0.66332 -0.69 -1.07 s-0.23 -0.90332 -0.23 -1.49 c0 -1.3333 0.35 -2.3266 1.05 -2.98 s1.7033 -0.98 3.01 -0.98 c1.1333 0 2.03 0.33 2.69 0.99 s0.99 1.65 0.99 2.97 l0 1.1 l-1.12 0 l0 -1.2 c0 -0.41334 -0.05 -0.79668 -0.15 -1.15 s-0.25666 -0.66334 -0.47 -0.93 s-0.48334 -0.47666 -0.81 -0.63 s-0.71666 -0.23 -1.17 -0.23 c-1.0667 0 -1.83 0.28 -2.29 0.84 s-0.67 1.3133 -0.63 2.26 c0.01334 0.41334 0.09 0.76668 0.23 1.06 s0.32666 0.55 0.56 0.77 s0.51334 0.41666 0.84 0.59 s0.69 0.34668 1.09 0.52002 c0.46666 0.2 0.93 0.41334 1.39 0.64 s0.89 0.50666 1.29 0.84 c0.4 0.34666 0.73 0.75 0.99 1.21 s0.39 1.03 0.39 1.71 c0 1.32 -0.33666 2.31 -1.01 2.97 s-1.61 0.99 -2.81 0.99 z M210.29000000000002 6.1 l0 13.9 l-1.16 0 l0 -13.9 l-3.26 0 l0 -1.1 l7.68 0 l0 1.1 l-3.26 0 z M221.18850000000006 13.14 l0 6.86 l-1.08 0 l0 -6.86 l-3.62 -8.14 l1.24 0 l2.9 6.94 l2.94 -6.94 l1.24 0 z M227.94700000000006 20 l0 -15 l1.08 0 l0 13.92 l5.1 0 l0 1.08 l-6.18 0 z M237.38550000000006 20 l0 -15 l7.36 0 l0 1.16 l-6.32 0 l0 5.7 l6.26 0 l0 0.92 l-6.26 0 l0 6.06 l6.46 0 l0 1.16 l-7.5 0 z"></path></g>
			</g>
		</svg>
	